<svg width="256" height="256" viewBox="0 0 256 256" fill="none" xmlns="http://www.w3.org/2000/svg">
<rect x="17" y="16" width="223" height="223" rx="111" fill="#1E1E1E"/>
<path d="M114.242 175.373C114.242 182.62 108.367 188.494 101.121 188.494V188.494C93.8744 188.494 88 182.62 88 175.373V66.506H158.252C164.188 66.506 169 71.3182 169 77.2542V77.2542C169 83.1903 164.188 88.0025 158.252 88.0025H114.242V115.965L150.659 115.965C151.157 115.965 151.638 116.151 152.006 116.487L161.605 125.235C162.475 126.029 162.475 127.398 161.605 128.192L152.006 136.94C151.638 137.276 151.157 137.462 150.659 137.462L114.242 137.462V175.373Z" fill="#DEE3E8"/>
<rect x="147.53" y="167.024" width="21.4699" height="21.4699" rx="10.7349" fill="#DEE3E8"/>
</svg>
